<?xml version="1.0" standalone="no"?>
<!DOCTYPE svg PUBLIC "-//W3C//DTD SVG 20010904//EN"
 "http://www.w3.org/TR/2001/REC-SVG-20010904/DTD/svg10.dtd">
<svg version="1.0" xmlns="http://www.w3.org/2000/svg"
 width="200.000000pt" height="76.000000pt" viewBox="0 0 200.000000 76.000000"
 preserveAspectRatio="xMidYMid meet">

<g transform="translate(0.000000,76.000000) scale(0.100000,-0.100000)"
fill="#000000" stroke="none">
<path d="M646 621 c-14 -5 -16 -10 -8 -15 8 -5 12 -54 12 -162 l0 -154 26 -10
c37 -15 91 -12 124 5 62 32 81 138 35 193 -34 41 -69 48 -111 23 l-34 -20 0
74 c0 78 -3 82 -44 66z m146 -159 c24 -20 33 -95 18 -133 -20 -48 -73 -65
-104 -33 -17 16 -23 138 -8 160 22 33 60 35 94 6z"/>
<path d="M1100 621 c-25 -7 -25 -7 -2 -13 22 -6 22 -9 22 -156 0 -145 -1 -152
-22 -166 -21 -15 -19 -16 42 -15 49 0 60 2 43 9 -23 9 -23 12 -23 180 0 186 3
179 -60 161z"/>
<path d="M143 607 c16 -11 17 -30 15 -162 -3 -148 -3 -150 -28 -162 -21 -11
-3 -13 121 -13 l147 0 6 28 c4 15 9 36 12 47 4 14 -3 9 -24 -15 -29 -34 -32
-35 -103 -35 l-74 0 -3 150 c-2 132 -1 151 15 162 14 11 8 13 -42 13 -50 0
-56 -2 -42 -13z"/>
<path d="M1216 601 c9 -10 46 -86 83 -168 36 -82 71 -150 76 -150 6 -1 37 68
71 153 34 84 67 160 74 169 11 13 7 15 -26 14 -22 0 -33 -3 -26 -6 6 -2 12
-10 12 -16 0 -12 -76 -212 -87 -230 -9 -14 -104 205 -99 231 3 20 -1 22 -45
22 -47 0 -48 -1 -33 -19z"/>
<path d="M533 501 c41 -33 37 -68 -10 -88 -68 -28 -93 -51 -93 -87 0 -17 5
-37 12 -44 17 -17 64 -15 92 3 21 14 24 14 29 0 8 -20 51 -19 68 1 11 14 10
15 -7 12 -17 -3 -19 5 -24 89 -5 101 -14 117 -65 129 l-30 7 28 -22z m27 -134
c0 -50 -13 -67 -52 -67 -50 0 -50 67 0 94 44 24 52 20 52 -27z"/>
<path d="M932 505 c-75 -33 -84 -187 -13 -225 52 -27 140 7 154 60 4 16 0 14
-23 -10 -38 -41 -79 -41 -114 1 -15 18 -26 43 -26 60 l0 29 80 0 c49 0 80 4
80 10 0 27 -32 69 -61 79 -39 13 -36 14 -77 -4z m75 -34 c17 -35 9 -41 -48
-41 -39 0 -49 3 -49 17 0 51 74 69 97 24z"/>
<path d="M1742 505 c-43 -19 -66 -72 -59 -139 6 -62 39 -96 95 -96 45 0 76 20
98 63 l17 31 -32 -32 c-38 -37 -77 -42 -109 -12 -12 11 -24 33 -28 48 -3 15
-7 33 -10 40 -2 9 18 12 81 12 47 0 85 2 85 4 0 1 -5 18 -11 36 -8 22 -22 37
-45 46 -40 17 -41 17 -82 -1z m75 -34 c17 -35 9 -41 -48 -41 -39 0 -49 3 -49
17 0 51 74 69 97 24z"/>
<path d="M456 494 c-23 -22 -20 -54 4 -54 14 0 20 7 20 23 0 13 5 28 12 35 9
9 8 12 -4 12 -9 0 -24 -7 -32 -16z"/>
<path d="M1575 495 c-27 -13 -27 -14 -7 -15 21 0 22 -3 22 -95 0 -90 -1 -96
-22 -105 -17 -6 -7 -9 42 -9 49 0 61 2 48 10 -15 9 -18 26 -18 119 0 122 -1
124 -65 95z"/>
<path d="M742 168 c-7 -7 -12 -25 -12 -40 0 -55 80 -64 88 -9 3 16 -1 21 -20
20 -17 -1 -18 -3 -5 -6 23 -6 22 -30 -3 -38 -28 -9 -52 13 -48 44 3 23 7 26
40 25 21 -1 35 3 32 7 -8 13 -58 11 -72 -3z"/>
<path d="M841 128 c1 -29 4 -43 6 -30 6 28 18 28 37 0 9 -12 16 -18 16 -12 0
5 -6 16 -12 22 -10 10 -10 15 1 21 22 14 9 46 -22 49 -27 3 -27 3 -26 -50z
m49 28 c0 -15 -24 -28 -34 -19 -13 14 -5 33 14 33 11 0 20 -6 20 -14z"/>
<path d="M936 164 c-21 -20 -20 -37 3 -65 16 -20 23 -22 47 -14 51 18 42 95
-12 95 -12 0 -30 -7 -38 -16z m72 -25 c4 -31 -20 -53 -47 -44 -47 15 -31 79
18 73 20 -2 27 -9 29 -29z"/>
<path d="M1041 144 c-1 -47 17 -69 49 -59 17 5 20 14 18 53 l-1 47 -6 -45 c-4
-31 -11 -46 -23 -48 -17 -3 -22 7 -31 68 -3 15 -5 9 -6 -16z"/>
<path d="M1131 128 c1 -29 4 -43 6 -31 3 13 13 23 26 25 16 2 22 10 22 28 0
20 -6 26 -27 28 -28 3 -28 3 -27 -50z m47 25 c-5 -26 -38 -29 -38 -4 0 15 6
21 21 21 14 0 19 -5 17 -17z"/>
<path d="M1221 133 c-1 -52 0 -53 27 -52 23 2 24 2 5 6 -14 3 -23 12 -23 23 0
11 9 20 23 23 22 4 22 4 0 6 -14 1 -23 9 -26 24 -2 12 -5 -2 -6 -30z"/>
<path d="M233 133 c70 -2 184 -2 255 0 70 1 12 3 -128 3 -140 0 -198 -2 -127
-3z"/>
<path d="M1513 133 c70 -2 184 -2 255 0 70 1 12 3 -128 3 -140 0 -198 -2 -127
-3z"/>
</g>
</svg>
